<?xml version="1.0" encoding="UTF-8" standalone="no"?> <!-- Created with Vectornator for iOS (http://vectornator.io/) --><!DOCTYPE svg PUBLIC "-//W3C//DTD SVG 1.1//EN" "http://www.w3.org/Graphics/SVG/1.1/DTD/svg11.dtd">
<svg height="100%" style="fill-rule:nonzero;clip-rule:evenodd;stroke-linecap:round;stroke-linejoin:round;" xmlns:xlink="http://www.w3.org/1999/xlink" xmlns="http://www.w3.org/2000/svg" xml:space="preserve" width="100%" xmlns:vectornator="http://vectornator.io" version="1.1" viewBox="0 0 1000 400">
<metadata>
<vectornator:setting key="RulersVisible" value="1"/>
<vectornator:setting key="GuidesVisible" value="1"/>
<vectornator:setting key="DynamicGuides" value="0"/>
<vectornator:setting key="SnapToEdges" value="0"/>
<vectornator:setting key="CMYKEnabledKey" value="0"/>
<vectornator:setting key="TimeLapseWatermarkDisabled" value="0"/>
<vectornator:setting key="OutlineMode" value="0"/>
<vectornator:setting key="DisplayWhiteBackground" value="0"/>
<vectornator:setting key="SnapToPoints" value="0"/>
<vectornator:setting key="IsolateActiveLayer" value="0"/>
<vectornator:setting key="PencilOnly" value="0"/>
<vectornator:setting key="Units" value="Points"/>
<vectornator:setting key="DimensionsVisible" value="1"/>
<vectornator:setting key="SnapToGrid" value="0"/>
<vectornator:setting key="doHistoryDisabled" value="0"/>
<vectornator:setting key="SnapToGuides" value="1"/>
</metadata>
<defs/>
<g id="Layer 1" vectornator:layerName="Layer 1">
<path stroke="#000000" stroke-width="0.1" d="M3.14866+20L996.851+20C998.59+20+1000+21.4097+1000+23.1487L1000+36.8513C1000+38.5903+998.59+40+996.851+40L3.14866+40C1.4097+40+0+38.5903+0+36.8513L0+23.1487C0+21.4097+1.4097+20+3.14866+20Z" fill="#000000" stroke-linecap="butt" opacity="1" stroke-linejoin="miter"/>
<path stroke="#000000" stroke-width="0.1" d="M800+30C800+13.4315+813.431+0+830+0C846.569+0+860+13.4315+860+30C860+46.5685+846.569+60+830+60C813.431+60+800+46.5685+800+30Z" fill="#000000" stroke-linecap="butt" opacity="1" stroke-linejoin="miter"/>
<path d="M516.219+856.673L359.551+585.317L672.887+585.317L516.219+856.673Z" opacity="1" fill="#ffffff"/>
<path stroke="#000000" stroke-width="10" d="M71.9105+155C59.954+155+49.9865+171.006+49.9865+171.006C49.9865+171.006+40.0415+155+28.094+155C14.5175+155+5+165.394+5+181.755C5+209.153+33.719+222.797+49.865+245L50.126+245C66.281+222.797+95+209.153+95+181.755C95+165.394+85.4735+155+71.9105+155Z" fill="none" stroke-linecap="round" opacity="1" stroke-linejoin="round"/>
<path stroke="#000000" stroke-width="10" d="M905+200C905+175.147+925.147+155+950+155C974.853+155+995+175.147+995+200C995+224.853+974.853+245+950+245C925.147+245+905+224.853+905+200Z" fill="none" stroke-linecap="round" opacity="1" stroke-linejoin="round"/>
<path d="M915+195L985+195L985+205L915+205L915+195Z" opacity="1" fill="#000000"/>
<g opacity="1">
<path d="M200+150L220+150L220+250L200+250L200+150Z" opacity="1" fill="#000000"/>
<path d="M200+200.487L299.352+150L300+250L200+200.487Z" opacity="1" fill="#000000"/>
</g>
<g opacity="1">
<path d="M799.696+150L779.757+150L779.757+250L799.696+250L799.696+150Z" opacity="1" fill="#000000"/>
<path d="M799.696+200.487L700.646+150L700+250L799.696+200.487Z" opacity="1" fill="#000000"/>
</g>
<path d="M945+360.134L925+370L925.134+350L945+360.134Z" opacity="1" fill="#000000"/>
<path d="M950+357.5L1000+357.5L1000+362.5L950+362.5L950+357.5Z" opacity="1" fill="#000000"/>
<path d="M925+377.5L1000+377.5L1000+382.985L925+382.985L925+377.5Z" opacity="1" fill="#000000"/>
<path d="M925+395L1000+395L1000+400L925+400L925+395Z" opacity="1" fill="#000000"/>
<path d="M70+350L75+350L75+400L70+400L70+350Z" opacity="1" fill="#000000"/>
<path d="M50+350L75+350L75+355L50+355L50+350Z" opacity="1" fill="#000000"/>
<path d="M50+350L55+350L55+400L50+400L50+350Z" opacity="1" fill="#000000"/>
<path d="M50+395L75+395L75+400L50+400L50+395Z" opacity="1" fill="#000000"/>
<path d="M60+362.5C60+361.119+61.1193+360+62.5+360C63.8807+360+65+361.119+65+362.5C65+363.881+63.8807+365+62.5+365C61.1193+365+60+363.881+60+362.5Z" opacity="1" fill="#000000"/>
<path stroke="#000000" stroke-width="3" d="M57.5+385C57.5+382.239+59.7386+380+62.5+380C65.2614+380+67.5+382.239+67.5+385C67.5+387.761+65.2614+390+62.5+390C59.7386+390+57.5+387.761+57.5+385Z" fill="none" stroke-linecap="round" opacity="1" stroke-linejoin="round"/>
<path d="M40+350L45+350L45+390L40+390L40+350Z" opacity="1" fill="#000000"/>
<path d="M500+100C444.78+100+400+144.78+400+200C400+255.22+444.78+300+500+300C555.22+300+600+255.22+600+200C600+144.78+555.22+100+500+100ZM475.75+150.594C476.874+150.619+478.001+150.916+478.969+151.5L549.469+194.844C551.363+195.972+552.518+198.064+552.438+200.281C552.437+202.458+551.269+204.559+549.375+205.688L478.875+248.656C477.867+249.261+476.731+249.562+475.562+249.562C474.474+249.563+473.436+249.305+472.469+248.781C470.494+247.653+469.25+245.516+469.25+243.219L469.25+156.938C469.25+154.64+470.485+152.504+472.5+151.375C473.488+150.811+474.626+150.569+475.75+150.594Z" opacity="1" fill="#000000"/>
<path d="M0.0106202+350L4.98938+350C4.99525+350+5+350.012+5+350.026L5+389.974C5+389.988+4.99525+390+4.98938+390L0.0106202+390C0.00475484+390+0+389.988+0+389.974L0+350.026C0+350.012+0.00475484+350+0.0106202+350Z" opacity="1" fill="#000000"/>
<path d="M0+385L45+385L45+390L0+390L0+385Z" opacity="1" fill="#000000"/>
<path d="M10+385L15+385L15+400L10+400L10+385Z" opacity="1" fill="#000000"/>
<path d="M30+385L35+385L35+400L30+400L30+385Z" opacity="1" fill="#000000"/>
<path d="M0+350L45+350L45+355L0+355L0+350Z" opacity="1" fill="#000000"/>
</g>
</svg>
